HIERARCHY
ROOT Hips
{
	OFFSET 0.000000 0.000000 0.000000
	CHANNELS 6 Xposition Yposition Zposition Xrotation Yrotation Zrotation
	JOINT LeftUpLeg_virtual
	{
		OFFSET 0.000000 0.000000 0.000000
		CHANNELS 3 Xrotation Yrotation Zrotation
		JOINT LeftUpLeg
		{
			OFFSET 13.026900 -6.336304 -1.092800
			CHANNELS 3 Xrotation Yrotation Zrotation
			JOINT LeftLeg
			{
				OFFSET 0.524474 -46.096886 9.782700
				CHANNELS 3 Xrotation Yrotation Zrotation
				JOINT LeftFoot
				{
					OFFSET -0.524474 -53.427422 -12.948200
					CHANNELS 3 Xrotation Yrotation Zrotation
					JOINT LeftToeBase
					{
						OFFSET 0.192200 -14.009700 16.364100
						CHANNELS 3 Xrotation Yrotation Zrotation
						JOINT LeftToe_End
						{
							OFFSET -1.784700 -0.561700 9.474800
							CHANNELS 3 Xrotation Yrotation Zrotation
							End Site
							{
								OFFSET 0 0 0
							}
						}
					}
				}
			}
		}
	}
	JOINT RightUpLeg_virtual
	{
		OFFSET 0.000000 0.000000 0.000000
		CHANNELS 3 Xrotation Yrotation Zrotation
		JOINT RightUpLeg
		{
			OFFSET -12.883000 -6.336304 -1.092800
			CHANNELS 3 Xrotation Yrotation Zrotation
			JOINT RightLeg
			{
				OFFSET -0.524587 -46.096825 9.782800
				CHANNELS 3 Xrotation Yrotation Zrotation
				JOINT RightFoot
				{
					OFFSET 0.524587 -53.427383 -12.948300
					CHANNELS 3 Xrotation Yrotation Zrotation
					JOINT RightToeBase
					{
						OFFSET -0.192200 -14.009700 16.364100
						CHANNELS 3 Xrotation Yrotation Zrotation
						JOINT RightToe_End
						{
							OFFSET 1.784700 -0.561700 9.474800
							CHANNELS 3 Xrotation Yrotation Zrotation
							End Site
							{
								OFFSET 0 0 0
							}
						}
					}
				}
			}
		}
	}
	JOINT Spine_virtual
	{
		OFFSET 0.000000 0.000000 0.000000
		CHANNELS 3 Xrotation Yrotation Zrotation
		JOINT Spine
		{
			OFFSET 0.072000 7.257294 -0.789700
			CHANNELS 3 Xrotation Yrotation Zrotation
			JOINT Spine1
			{
				OFFSET 0.000000 12.508769 -0.658067
				CHANNELS 3 Xrotation Yrotation Zrotation
				JOINT Spine1_split
				{
					OFFSET 0.000000 12.508769 -0.658067
					CHANNELS 3 Xrotation Yrotation Zrotation
					JOINT Spine2
					{
						OFFSET 0.000000 12.508769 -0.658067
						CHANNELS 3 Xrotation Yrotation Zrotation
						JOINT Neck_virtual
						{
							OFFSET 0.000000 0.000000 0.000000
							CHANNELS 3 Xrotation Yrotation Zrotation
							JOINT Neck
							{
								OFFSET 0.000000 14.033295 7.520400
								CHANNELS 3 Xrotation Yrotation Zrotation
								JOINT Head
								{
									OFFSET 0.000000 8.198502 5.703100
									CHANNELS 3 Xrotation Yrotation Zrotation
									JOINT HeadTop_End
									{
										OFFSET 0.000000 17.760803 13.332701
										CHANNELS 3 Xrotation Yrotation Zrotation
										End Site
										{
											OFFSET 0 0 0
										}
									}
								}
							}
						}
						JOINT LeftShoulder_virtual
						{
							OFFSET 0.000000 0.000000 0.000000
							CHANNELS 3 Xrotation Yrotation Zrotation
							JOINT LeftShoulder
							{
								OFFSET 6.292450 5.785301 -0.669000
								CHANNELS 3 Xrotation Yrotation Zrotation
								JOINT LeftShoulder_split
								{
									OFFSET 6.292450 5.785301 -0.669000
									CHANNELS 3 Xrotation Yrotation Zrotation
									JOINT LeftArm
									{
										OFFSET 13.907140 -6.093903 1.965100
										CHANNELS 3 Xrotation Yrotation Zrotation
										JOINT LeftForeArm
										{
											OFFSET 34.140198 0.000000 0.000000
											CHANNELS 3 Xrotation Yrotation Zrotation
											JOINT LeftHand
											{
												OFFSET 40.960209 0.000000 0.000000
												CHANNELS 3 Xrotation Yrotation Zrotation
												End Site
												{
													OFFSET 0 0 0
												}
											}
										}
									}
								}
							}
						}
						JOINT RightShoulder_virtual
						{
							OFFSET 0.000000 0.000000 0.000000
							CHANNELS 3 Xrotation Yrotation Zrotation
							JOINT RightShoulder
							{
								OFFSET -6.292450 5.785301 -0.669000
								CHANNELS 3 Xrotation Yrotation Zrotation
								JOINT RightShoulder_split
								{
									OFFSET -6.292450 5.785301 -0.669000
									CHANNELS 3 Xrotation Yrotation Zrotation
									JOINT RightArm
									{
										OFFSET -13.907140 -6.093903 1.965100
										CHANNELS 3 Xrotation Yrotation Zrotation
										JOINT RightForeArm
										{
											OFFSET -34.140198 0.000000 0.000000
											CHANNELS 3 Xrotation Yrotation Zrotation
											JOINT RightHand
											{
												OFFSET -40.960209 0.000000 0.000000
												CHANNELS 3 Xrotation Yrotation Zrotation
												End Site
												{
													OFFSET 0 0 0
												}
											}
										}
									}
								}
							}
						}
					}
				}
			}
		}
	}
}
MOTION
Frames: 6
Frame Time: 0.03333333
11.580036 92.585907 -5.378178 0.000000 0.000000 0.000000 49.772978 -85.465460 50.937655 -34.373846 -5.591919 21.330542 47.618959 -7.848021 12.819694 -13.836583 -7.447830 -22.981167 -3.558166 0.453906 -1.734499 0.000000 0.000000 0.000000 29.155626 -83.857866 31.384268 -13.965369 6.094073 -24.664086 40.429502 8.881073 -10.215143 -14.968187 0.356292 21.086496 -15.449485 1.730704 0.607507 0.000000 0.000000 0.000000 33.491809 -80.221972 34.161393 1.960698 5.230891 2.679506 0.394466 3.498445 1.018521 1.641649 -1.179365 0.827855 0.000000 0.000000 0.000000 0.733750 3.013047 0.906390 -3.442683 7.975693 -1.846864 3.069051 41.579436 -5.209785 0.000000 0.000000 0.000000 1.035802 3.396033 1.043698 1.519886 11.395775 -10.612505 -3.413723 -2.134522 -2.098932 -10.077181 10.483625 -65.300263 -179.147392 -63.393171 -176.967606 0.000000 0.000000 0.000000 1.793609 3.628434 0.716353 1.191676 9.488453 10.186388 1.186547 3.554413 2.351394 -13.895366 34.106481 48.391074 -179.793119 71.315542 179.316645 0.000000 0.000000 0.000000 
11.641910 92.055008 -5.594570 0.000000 0.000000 0.000000 36.799584 -85.399590 38.442883 -33.961015 -4.865384 20.164385 47.249183 -9.268772 13.677121 -14.255993 -8.993738 -22.838580 -5.513152 0.556196 -1.782908 0.000000 0.000000 0.000000 20.261652 -82.235696 22.775587 -13.224745 4.623745 -24.551851 40.767183 6.972737 -9.907633 -13.517509 -1.361718 19.956028 -16.032846 1.314898 1.800503 0.000000 0.000000 0.000000 29.343835 -79.466027 29.902824 1.912548 5.446852 2.486572 0.329653 3.641709 1.004095 1.673716 -1.736790 0.985664 0.000000 0.000000 0.000000 0.657856 3.177884 0.848737 -2.693688 7.436024 -1.851878 3.165455 40.136889 -4.809901 0.000000 0.000000 0.000000 1.034153 3.454791 1.055337 1.372485 11.105678 -9.632629 -2.711265 -1.713653 -3.021705 -8.255550 8.066908 -65.588394 -179.650586 -62.849570 -177.357760 0.000000 0.000000 0.000000 1.505556 3.718253 0.736428 1.271981 8.934595 9.374263 0.881364 4.249695 2.333754 -12.786300 32.776377 48.180038 -178.792564 69.955153 178.238895 0.000000 0.000000 0.000000 
11.610698 95.588745 -5.841488 0.000000 0.000000 0.000000 18.616662 -82.419695 20.761859 -32.649657 -3.577400 18.093123 41.914918 -11.324039 13.447776 -10.670281 -11.593754 -23.687248 -5.995012 0.596912 -1.611540 0.000000 0.000000 0.000000 14.473005 -78.663931 17.456556 -12.940481 2.358174 -24.042664 38.943703 5.835504 -9.521688 -7.196993 -1.710816 20.059332 -18.404549 0.752292 2.978907 0.000000 0.000000 0.000000 21.870069 -77.353696 22.595473 1.668230 5.387731 2.080098 0.096498 3.688617 0.914515 1.342912 -2.324504 1.049205 0.000000 0.000000 0.000000 0.563191 3.234023 0.723475 -1.889804 6.891155 -1.798883 3.143545 37.927450 -3.977787 0.000000 0.000000 0.000000 0.860497 3.453190 0.976025 1.184165 10.289550 -8.248341 -1.614388 -1.003380 -3.581358 -6.586751 4.346324 -64.107295 -179.934640 -62.083004 -177.703668 0.000000 0.000000 0.000000 1.115542 3.679767 0.668616 1.275141 8.320660 8.439477 0.484403 4.703728 2.105980 -10.992505 30.297370 47.456738 -178.450358 67.416160 177.839179 0.000000 0.000000 0.000000 
11.463691 102.134300 -6.145897 0.000000 0.000000 0.000000 10.870196 -77.065216 13.436364 -30.286968 -1.640910 15.606055 33.207953 -12.590766 11.827952 -4.409121 -14.045379 -24.089632 -4.432874 0.616228 -1.446603 0.000000 0.000000 0.000000 10.969793 -73.953600 14.471322 -13.350043 -0.270534 -23.279443 36.147946 5.606217 -9.128637 1.807768 -0.609304 21.230870 -21.119858 0.128262 3.757596 0.000000 0.000000 0.000000 14.810693 -73.793364 16.030135 1.376823 5.092928 1.574143 -0.198283 3.635498 0.782408 0.832407 -2.319793 1.029880 0.000000 0.000000 0.000000 0.434458 3.184011 0.576576 -1.220800 6.387716 -1.800359 2.975898 35.199742 -2.909250 0.000000 0.000000 0.000000 0.569253 3.396639 0.853061 1.030102 9.041241 -6.838743 -0.448373 -0.238594 -3.815427 -5.305493 -0.060691 -61.408277 -179.955035 -61.377822 -177.877756 0.000000 0.000000 0.000000 0.747466 3.542744 0.536463 1.194350 7.738014 7.506588 -0.064048 4.756455 1.718587 -8.753802 26.973705 46.104590 -178.654034 64.859968 177.992271 0.000000 0.000000 0.000000 
11.145914 109.869118 -6.522522 0.000000 0.000000 0.000000 7.969542 -70.807362 10.880139 -27.364379 1.061720 13.225436 24.371402 -11.558347 9.535552 1.795783 -14.701190 -22.466348 -1.401138 0.588533 -1.484926 0.000000 0.000000 0.000000 8.349392 -68.552532 12.372435 -14.317342 -3.126229 -22.159917 33.766403 5.265182 -8.637048 9.447510 0.785492 21.701934 -21.577143 -0.404064 3.934916 0.000000 0.000000 0.000000 9.464013 -69.129513 11.500979 1.151373 4.608477 1.162366 -0.403714 3.491119 0.648668 0.238644 -1.830964 0.885314 0.000000 0.000000 0.000000 0.274697 3.034010 0.448617 -0.888196 5.942613 -1.919980 2.647338 32.344658 -1.822194 0.000000 0.000000 0.000000 0.322732 3.271348 0.721784 0.989519 7.512861 -5.909580 0.252946 0.278391 -3.714608 -4.380881 -4.527256 -58.297898 -179.772778 -61.011607 -177.961030 0.000000 0.000000 0.000000 0.527026 3.362588 0.407048 1.060793 7.351313 6.684525 -0.508801 4.535036 1.127520 -6.563697 23.255505 44.385090 -179.153499 63.246951 178.467720 0.000000 0.000000 0.000000 
10.787730 116.803848 -6.786160 0.000000 0.000000 0.000000 6.162024 -64.974148 9.452089 -23.983936 3.986436 11.007465 17.796268 -8.631523 7.831756 5.578954 -12.962900 -19.158310 0.754981 0.469510 -1.397152 0.000000 0.000000 0.000000 5.759916 -63.224882 10.381136 -15.873464 -5.595079 -20.649834 32.519518 4.218515 -8.123271 12.813974 1.201653 20.112626 -17.340534 -0.593782 3.506752 0.000000 0.000000 0.000000 6.009439 -64.015299 8.972410 1.146353 4.006408 0.905434 -0.407401 3.260029 0.535845 0.427378 -1.329371 0.664279 0.000000 0.000000 0.000000 0.124980 2.769233 0.372557 -1.065032 5.600901 -2.217397 2.081884 29.520054 -0.828028 0.000000 0.000000 0.000000 0.227134 3.029807 0.606422 1.055733 5.913103 -5.671651 0.252012 0.439691 -3.336750 -3.932255 -8.398016 -55.645227 -179.582435 -61.435830 -178.112592 0.000000 0.000000 0.000000 0.522549 3.135663 0.317238 0.900417 7.201171 6.102629 -0.865366 4.193978 0.477568 -4.869651 19.662923 42.570616 -179.737275 63.187316 179.085128 0.000000 0.000000 0.000000 
